<?xml version="1.0" encoding="UTF-8"?>
<svg id="Capa_1" data-name="Capa 1" xmlns="http://www.w3.org/2000/svg" viewBox="0 0 672.8 306.02">
  <defs>
    <style>
      .cls-1 {
        fill: #bde700;
        stroke-width: 0px;
      }
    </style>
  </defs>
  <path class="cls-1" d="M0,306.02L144.83,3.48c2.04-4.26,7.93-4.7,10.58-.79,34.91,51.42,69.82,102.85,104.74,154.27,2.43,3.58,7.7,3.57,10.13,0,23.35-34.46,46.7-68.92,70.05-103.38,2.53-3.73,8.09-3.54,10.36.36,25.61,44.13,51.22,88.25,76.82,132.38,2.49,4.28,8.77,3.99,10.84-.5l75.88-164.18c2.13-4.62,8.64-4.77,10.98-.25,49.2,94.88,98.39,189.76,147.59,284.64H0Z"/>
</svg>